<?xml version="1.0" standalone="no"?>
<!DOCTYPE svg PUBLIC "-//W3C//DTD SVG 20010904//EN"
 "http://www.w3.org/TR/2001/REC-SVG-20010904/DTD/svg10.dtd">
<svg version="1.0" xmlns="http://www.w3.org/2000/svg"
 width="512.000000pt" height="512.000000pt" viewBox="0 0 512.000000 512.000000"
 preserveAspectRatio="xMidYMid meet">
<metadata>
Created by potrace 1.16, written by Peter Selinger 2001-2019
</metadata>
<g transform="translate(0.000000,512.000000) scale(0.100000,-0.100000)"
fill="#000000" stroke="none">
<path d="M0 2560 l0 -2560 2560 0 2560 0 0 2560 0 2560 -2560 0 -2560 0 0
-2560z m2711 350 c163 -50 301 -198 338 -362 46 -200 -36 -418 -198 -526 -33
-22 -58 -43 -55 -46 2 -3 2 -4 -2 -2 -3 2 -28 -5 -57 -16 -75 -29 -225 -36
-303 -13 -83 24 -121 42 -183 89 -156 118 -226 330 -175 530 44 173 194 316
379 359 55 13 196 6 256 -13z"/>
</g>
</svg>
